<svg width="24" height="24" viewBox="0 0 24 24" fill="none" xmlns="http://www.w3.org/2000/svg">
<path d="M5.92631 14.2758L5.16685 17.111L2.39104 17.1697C1.56148 15.631 1.09094 13.8706 1.09094 11.9999C1.09094 10.1909 1.53089 8.485 2.31072 6.98291H2.31131L4.78256 7.43598L5.86512 9.8924C5.63854 10.553 5.51505 11.262 5.51505 11.9999C5.51513 12.8007 5.66019 13.568 5.92631 14.2758Z" fill="#FBBB00"/>
<path d="M22.7185 9.96185C22.8438 10.6218 22.9091 11.3033 22.9091 11.9998C22.9091 12.7808 22.827 13.5427 22.6706 14.2775C22.1395 16.7782 20.7519 18.9619 18.8296 20.5071L18.829 20.5065L15.7164 20.3477L15.2758 17.5976C16.5513 16.8496 17.5482 15.6789 18.0733 14.2775H12.2399V9.96185H18.1584H22.7185Z" fill="#518EF8"/>
<path d="M18.8289 20.5066L18.8295 20.5072C16.96 22.0099 14.5852 22.909 12 22.909C7.84554 22.909 4.23356 20.5869 2.39099 17.1697L5.92626 14.2758C6.84752 16.7345 9.21936 18.4848 12 18.4848C13.1952 18.4848 14.3149 18.1617 15.2757 17.5977L18.8289 20.5066Z" fill="#28B446"/>
<path d="M18.9632 3.60224L15.4292 6.49553C14.4348 5.87397 13.2593 5.51491 12 5.51491C9.15642 5.51491 6.74023 7.34546 5.86512 9.89235L2.31127 6.98286H2.31067C4.12627 3.48236 7.7838 1.09076 12 1.09076C14.6469 1.09076 17.0739 2.03363 18.9632 3.60224Z" fill="#F14336"/>
</svg>
