<svg width="24" height="24" viewBox="0 0 24 24" fill="none" xmlns="http://www.w3.org/2000/svg">
<g clip-path="url(#clip0_2720_909)">
<path d="M7.07846 23.5506C6.60528 23.2358 6.18591 22.8468 5.83647 22.3986C5.45208 21.936 5.09593 21.4506 4.76997 20.9451C4.00503 19.8244 3.40514 18.5997 2.98872 17.3083C2.48847 15.8083 2.24622 14.3706 2.24622 12.9643C2.24622 11.3938 2.58597 10.0228 3.25047 8.87083C3.74305 7.97042 4.46728 7.21797 5.34822 6.69133C6.20195 6.16106 7.1829 5.87087 8.18772 5.85133C8.53946 5.85133 8.91821 5.90233 9.32021 5.99984C9.60896 6.08158 9.96071 6.21058 10.3905 6.37108C10.9372 6.58183 11.238 6.71083 11.34 6.74233C11.6602 6.85933 11.9295 6.91033 12.141 6.91033C12.3015 6.91033 12.528 6.85933 12.7852 6.78133C12.93 6.73033 13.203 6.64033 13.5937 6.47308C13.9807 6.33208 14.2852 6.21133 14.5275 6.12133C14.8987 6.01183 15.258 5.91058 15.5782 5.85958C15.9579 5.79973 16.3432 5.78387 16.7265 5.81233C17.3907 5.85575 18.0449 5.9965 18.6682 6.23008C19.6875 6.64034 20.5117 7.28083 21.1252 8.19133C20.8659 8.35116 20.6225 8.5355 20.3985 8.74183C19.9107 9.17427 19.4952 9.68193 19.1677 10.2456C18.7397 11.0159 18.5178 11.8836 18.5235 12.7648C18.5392 13.8471 18.8167 14.8003 19.3635 15.6246C19.7654 16.2355 20.2878 16.7579 20.8987 17.1598C21.2115 17.3706 21.4807 17.5153 21.7387 17.6128C21.618 17.9878 21.489 18.3508 21.3367 18.7108C20.9914 19.5181 20.5729 20.2921 20.0865 21.0231C19.653 21.6523 19.3132 22.1211 19.0552 22.4331C18.6532 22.9093 18.2662 23.2731 17.8755 23.5266C17.4457 23.8116 16.938 23.9638 16.422 23.9638C16.0725 23.9773 15.7231 23.935 15.387 23.8386C15.0982 23.7411 14.8125 23.6353 14.5312 23.5146C14.2388 23.3803 13.9373 23.2668 13.629 23.1748C12.8667 22.9791 12.0676 22.9778 11.3047 23.1711C10.992 23.2611 10.6912 23.3661 10.3942 23.4951C9.97646 23.6706 9.69897 23.7883 9.53847 23.8386C9.21821 23.9323 8.88596 23.9908 8.54996 24.0103C8.03021 24.0103 7.54571 23.8618 7.06571 23.5611L7.07846 23.5506ZM13.9335 5.08933C13.254 5.42908 12.6052 5.57383 11.961 5.52658C11.8597 4.87783 11.961 4.21408 12.2302 3.48733C12.4594 2.87163 12.7981 2.30247 13.23 1.80733C13.686 1.2861 14.2393 0.858866 14.859 0.549584C15.519 0.209834 16.1482 0.0260845 16.7497 -0.000915527C16.8277 0.678584 16.7497 1.34683 16.5 2.06908C16.2688 2.70755 15.9308 3.30203 15.5002 3.82708C15.0608 4.34903 14.5215 4.77792 13.914 5.08858L13.9335 5.08933Z" fill="#2E2E2E"/>
</g>
<defs>
<clipPath id="clip0_2720_909">
<rect width="24" height="24" fill="white"/>
</clipPath>
</defs>
</svg>
